<svg xmlns="http://www.w3.org/2000/svg" width="12.387" height="12.339" viewBox="0 0 12.387 12.339">
  <defs>
    <style>
      .cls-1 {
        fill: #787f83;
      }
    </style>
  </defs>
  <path id="comments_icon" class="cls-1" d="M10.331-56.074a1.98,1.98,0,0,1,1.452.6,1.98,1.98,0,0,1,.6,1.452v5.444a1.98,1.98,0,0,1-.6,1.452,1.98,1.98,0,0,1-1.452.6h-2.9l-3.46,2.782v-2.782H2.056a1.98,1.98,0,0,1-1.452-.6A1.98,1.98,0,0,1,0-48.574v-5.444a1.98,1.98,0,0,1,.6-1.452,1.98,1.98,0,0,1,1.452-.6Zm.774,7.5v-5.444a.744.744,0,0,0-.23-.544.744.744,0,0,0-.544-.23H2.056a.744.744,0,0,0-.544.23.744.744,0,0,0-.23.544V-48.6a.772.772,0,0,0,.23.569.744.744,0,0,0,.544.23H5.274v1.355L6.6-47.534l.363-.266h3.363a.744.744,0,0,0,.544-.23.744.744,0,0,0,.23-.544Zm-7.573-1.96a.668.668,0,0,1-.75-.762.674.674,0,0,1,.762-.762.674.674,0,0,1,.762.762.679.679,0,0,1-.774.762Zm2.661,0a.668.668,0,0,1-.75-.762.668.668,0,0,1,.75-.762.668.668,0,0,1,.75.762A.668.668,0,0,1,6.194-50.534Zm2.637,0a.668.668,0,0,1-.75-.762.674.674,0,0,1,.762-.762A.674.674,0,0,1,9.6-51.3a.679.679,0,0,1-.774.762Z" transform="translate(0 56.074)"/>
</svg>
