<svg xmlns="http://www.w3.org/2000/svg" xmlns:xlink="http://www.w3.org/1999/xlink" width="42" height="32.001" viewBox="0 0 42 32.001">
  <defs>
    <filter id="Path_7" x="0" y="0" width="42" height="32.001" filterUnits="userSpaceOnUse">
      <feOffset dy="3" input="SourceAlpha"/>
      <feGaussianBlur stdDeviation="3" result="blur"/>
      <feFlood flood-opacity="0.161"/>
      <feComposite operator="in" in2="blur"/>
      <feComposite in="SourceGraphic"/>
    </filter>
  </defs>
  <g id="camera-video-movie-film-record-cam" transform="translate(9 6)">
    <g transform="matrix(1, 0, 0, 1, -9, -6)" filter="url(#Path_7)">
      <path id="Path_7-2" data-name="Path 7" d="M23.76,5.08a.5.5,0,0,0-.49,0L18,7.69V7a2,2,0,0,0-2-2H2.59C1,5,0,7.68,0,12s1,7,2.59,7H16a2,2,0,0,0,2-2v-.69l5.28,2.64A.5.5,0,0,0,24,18.5V5.5A.5.5,0,0,0,23.76,5.08Z" transform="translate(9 1)" fill="#fff"/>
    </g>
  </g>
</svg>
